<svg xmlns="http://www.w3.org/2000/svg" xmlns:xlink="http://www.w3.org/1999/xlink" viewBox="0 0 500 500" width="500" height="500" preserveAspectRatio="xMidYMid meet" style="width: 100%; height: 100%; transform: translate3d(0px, 0px, 0px); content-visibility: visible;"><defs><clipPath id="__lottie_element_602"><rect width="500" height="500" x="0" y="0"/></clipPath><clipPath id="__lottie_element_604"><path d="M0,0 L500,0 L500,500 L0,500z"/></clipPath><clipPath id="__lottie_element_735"><path d="M0,0 L500,0 L500,500 L0,500z"/></clipPath><clipPath id="__lottie_element_739"><path d="M0,0 L500,0 L500,500 L0,500z"/></clipPath><g id="__lottie_element_742"><g class="primary design" transform="matrix(1,0,0,1,644,250)" opacity="1" style="display: none;"><g opacity="1" transform="matrix(1,0,0,1,0,0)"><path class="primary" fill="rgb(18,19,49)" fill-opacity="1" d=" M250,-250 C250,-250 250,250 250,250 C250,250 -250,250 -250,250 C-250,250 -250,-250 -250,-250 C-250,-250 250,-250 250,-250z"/><path stroke-linecap="butt" stroke-linejoin="miter" fill-opacity="0" stroke-miterlimit="4" class="primary" stroke="rgb(18,19,49)" stroke-opacity="1" stroke-width="0" d=" M250,-250 C250,-250 250,250 250,250 C250,250 -250,250 -250,250 C-250,250 -250,-250 -250,-250 C-250,-250 250,-250 250,-250z"/></g></g></g><filter id="__lottie_element_745" filterUnits="objectBoundingBox" x="0%" y="0%" width="100%" height="100%"><feComponentTransfer in="SourceGraphic"><feFuncA type="table" tableValues="1.0 0.0"/></feComponentTransfer></filter><mask id="__lottie_element_742_2" mask-type="alpha"><g filter="url(#__lottie_element_745)"><rect width="500" height="500" x="0" y="0" fill="#ffffff" opacity="0"/><use xmlns:ns1="http://www.w3.org/1999/xlink" ns1:href="#__lottie_element_742"/></g></mask><clipPath id="__lottie_element_804"><path d="M0,0 L500,0 L500,500 L0,500z"/></clipPath><clipPath id="__lottie_element_808"><path d="M0,0 L500,0 L500,500 L0,500z"/></clipPath><g id="__lottie_element_811"><g class="primary design" transform="matrix(1,0,0,1,644,250)" opacity="1" style="display: none;"><g opacity="1" transform="matrix(1,0,0,1,0,0)"><path class="primary" fill="rgb(18,19,49)" fill-opacity="1" d=" M250,-250 C250,-250 250,250 250,250 C250,250 -250,250 -250,250 C-250,250 -250,-250 -250,-250 C-250,-250 250,-250 250,-250z"/><path stroke-linecap="butt" stroke-linejoin="miter" fill-opacity="0" stroke-miterlimit="4" class="primary" stroke="rgb(18,19,49)" stroke-opacity="1" stroke-width="0" d=" M250,-250 C250,-250 250,250 250,250 C250,250 -250,250 -250,250 C-250,250 -250,-250 -250,-250 C-250,-250 250,-250 250,-250z"/></g></g></g><filter id="__lottie_element_814" filterUnits="objectBoundingBox" x="0%" y="0%" width="100%" height="100%"><feComponentTransfer in="SourceGraphic"><feFuncA type="table" tableValues="1.0 0.0"/></feComponentTransfer></filter><mask id="__lottie_element_811_2" mask-type="alpha"><g filter="url(#__lottie_element_814)"><rect width="500" height="500" x="0" y="0" fill="#ffffff" opacity="0"/><use xmlns:ns2="http://www.w3.org/1999/xlink" ns2:href="#__lottie_element_811"/></g></mask></defs><g clip-path="url(#__lottie_element_602)"><g clip-path="url(#__lottie_element_604)" transform="matrix(1,0,0,1,0,0)" opacity="1" style="display: block;"><g class="primary design" transform="matrix(1,0,0,1,291.66400146484375,250.00100708007812)" opacity="1" style="display: none;"><g opacity="1" transform="matrix(1,0,0,1,0,0)"><path stroke-linecap="round" stroke-linejoin="round" fill-opacity="0" class="primary" stroke="rgb(18,19,49)" stroke-opacity="1" stroke-width="31.3" d=" M36.45899963378906,192.70799255371094 C36.45899963378906,192.70799255371094 88.54100036621094,192.70799255371094 88.54100036621094,192.70799255371094 C100.0469970703125,192.70799255371094 109.375,183.38099670410156 109.375,171.875 C109.375,171.875 109.375,-171.875 109.375,-171.875 C109.375,-183.38099670410156 100.0469970703125,-192.70799255371094 88.54100036621094,-192.70799255371094 C88.54100036621094,-192.70799255371094 -88.54100036621094,-192.70799255371094 -88.54100036621094,-192.70799255371094 C-100.0469970703125,-192.70799255371094 -109.375,-183.38099670410156 -109.375,-171.875 C-109.375,-171.875 -109.375,-119.79100036621094 -109.375,-119.79100036621094"/></g></g><g class="primary design" transform="matrix(1,0,0,1,0,0)" opacity="1" style="display: block;"><g opacity="1" transform="matrix(1,0,0,1,291.66400146484375,250.0050048828125)"><path class="primary" fill="rgb(18,19,49)" fill-opacity="1" d=" M88.54199981689453,-208.33399963378906 C88.54199981689453,-208.33399963378906 -88.54199981689453,-208.33399963378906 -88.54199981689453,-208.33399963378906 C-108.64299774169922,-208.33399963378906 -125.0009994506836,-191.9770050048828 -125.0009994506836,-171.87600708007812 C-125.0009994506836,-171.87600708007812 -125.0009994506836,-119.79199981689453 -125.0009994506836,-119.79199981689453 C-125.0009994506836,-111.16600036621094 -118.00199890136719,-104.16699981689453 -109.3759994506836,-104.16699981689453 C-100.75,-104.16699981689453 -93.75,-111.16600036621094 -93.75,-119.79199981689453 C-93.75,-119.79199981689453 -93.75,-171.87600708007812 -93.75,-171.87600708007812 C-93.75,-174.7449951171875 -91.41100311279297,-177.08399963378906 -88.54199981689453,-177.08399963378906 C-88.54199981689453,-177.08399963378906 88.54199981689453,-177.08399963378906 88.54199981689453,-177.08399963378906 C91.41100311279297,-177.08399963378906 93.75,-174.7449951171875 93.75,-171.87600708007812 C93.75,-171.87600708007812 93.75,171.87600708007812 93.75,171.87600708007812 C93.75,174.7449951171875 91.41100311279297,177.08399963378906 88.54199981689453,177.08399963378906 C88.54199981689453,177.08399963378906 36.45899963378906,177.08399963378906 36.45899963378906,177.08399963378906 C27.83300018310547,177.08399963378906 20.83300018310547,184.08299255371094 20.83300018310547,192.70899963378906 C20.83300018310547,201.3350067138672 27.83300018310547,208.33399963378906 36.45899963378906,208.33399963378906 C36.45899963378906,208.33399963378906 88.54199981689453,208.33399963378906 88.54199981689453,208.33399963378906 C108.64299774169922,208.33399963378906 125.0009994506836,191.9770050048828 125.0009994506836,171.87600708007812 C125.0009994506836,171.87600708007812 125.0009994506836,-171.87600708007812 125.0009994506836,-171.87600708007812 C125.0009994506836,-191.9770050048828 108.64299774169922,-208.33399963378906 88.54199981689453,-208.33399963378906z"/></g><g opacity="1" transform="matrix(1,0,0,1,299.4830017089844,148.27499389648438)"><path class="primary" fill="rgb(18,19,49)" fill-opacity="1" d=" M-5.818999767303467,37.16299819946289 C-3.378999948501587,38.665000915527344 -0.7509999871253967,39.22700119018555 1.6890000104904175,39.22700119018555 C6.943999767303467,39.22700119018555 12.01200008392334,36.5989990234375 14.82800006866455,31.719999313354492 C14.82800006866455,31.719999313354492 29.843000411987305,5.818999767303467 29.843000411987305,5.818999767303467 C38.10100173950195,-8.633999824523926 33.22100067138672,-27.027000427246094 18.76799964904785,-35.28499984741211 C14.076000213623047,-38.10100173950195 8.821000099182129,-39.22700119018555 3.753000020980835,-39.22700119018555 C-6.570000171661377,-39.22700119018555 -16.70400047302246,-33.97100067138672 -22.336000442504883,-24.211999893188477 C-22.336000442504883,-24.211999893188477 -29.843000411987305,-11.26200008392334 -29.843000411987305,-11.26200008392334 C-38.10100173950195,3.003000020980835 -33.22100067138672,21.39699935913086 -18.770000457763672,29.655000686645508 C-18.770000457763672,29.655000686645508 -5.818999767303467,37.16299819946289 -5.818999767303467,37.16299819946289z"/></g><g opacity="1" transform="matrix(1,0,0,1,207.6060028076172,322.9179992675781)"><path class="primary" fill="rgb(18,19,49)" fill-opacity="1" d=" M146.55799865722656,-5.215000152587891 C146.55799865722656,-13.840999603271484 139.5590057373047,-20.84000015258789 130.93299865722656,-20.84000015258789 C130.93299865722656,-20.84000015258789 94.4749984741211,-20.84000015258789 94.4749984741211,-20.84000015258789 C94.4749984741211,-20.84000015258789 94.4749984741211,-78.12200164794922 94.4749984741211,-78.12200164794922 C94.4749984741211,-109.71800231933594 68.77899932861328,-135.41400146484375 37.18299865722656,-135.41400146484375 C37.18299865722656,-135.41400146484375 -40.94300079345703,-135.41400146484375 -40.94300079345703,-135.41400146484375 C-45.37799835205078,-135.41400146484375 -49.59000015258789,-133.53199768066406 -52.560001373291016,-130.24600219726562 C-52.560001373291016,-130.24600219726562 -99.43499755859375,-78.16200256347656 -99.43499755859375,-78.16200256347656 C-105.21299743652344,-71.74299621582031 -104.68399810791016,-61.86600112915039 -98.2750015258789,-56.0880012512207 C-91.82599639892578,-50.29999923706055 -81.95899963378906,-50.827999114990234 -76.20099639892578,-57.24700164794922 C-76.20099639892578,-57.24700164794922 -33.98500061035156,-104.16300201416016 -33.98500061035156,-104.16300201416016 C-33.98500061035156,-104.16300201416016 1.3049999475479126,-104.16300201416016 1.3049999475479126,-104.16300201416016 C1.3049999475479126,-104.16300201416016 -69.27300262451172,15.210000038146973 -69.27300262451172,15.210000038146973 C-69.27300262451172,15.210000038146973 -132.19000244140625,29.167999267578125 -132.19000244140625,29.167999267578125 C-142.19000244140625,31.25200080871582 -148.2310028076172,41.042999267578125 -146.1479949951172,50.834999084472656 C-144.27200317382812,59.375999450683594 -136.7729949951172,65.00199890136719 -128.44000244140625,65.00199890136719 C-126.98200225830078,65.00199890136719 -125.73200225830078,65.00199890136719 -124.48200225830078,64.58499908447266 C-124.48200225830078,64.58499908447266 -53.64799880981445,48.959999084472656 -53.64799880981445,48.959999084472656 C-48.64799880981445,47.91899871826172 -44.48099899291992,44.792999267578125 -41.98099899291992,40.62699890136719 C-41.98099899291992,40.62699890136719 -14.480999946594238,-6.040999889373779 -14.480999946594238,-6.040999889373779 C-14.480999946594238,-6.040999889373779 23.22800064086914,52.084999084472656 23.22800064086914,52.084999084472656 C23.22800064086914,52.084999084472656 23.226999282836914,117.28900146484375 23.226999282836914,117.28900146484375 C23.43400001525879,127.28900146484375 32.20399856567383,135.41400146484375 42.20500183105469,135.41400146484375 C42.20500183105469,135.41400146484375 42.20600128173828,135.41400146484375 42.41299819946289,135.41400146484375 C52.41400146484375,135.20599365234375 59.893001556396484,127.0790023803711 59.68600082397461,116.87100219726562 C59.68600082397461,116.87100219726562 59.68600082397461,46.667999267578125 59.68600082397461,46.667999267578125 C59.47700119018555,43.33399963378906 58.64500045776367,39.792999267578125 56.56100082397461,36.875999450683594 C56.56100082397461,36.875999450683594 28.643999099731445,-6.248000144958496 28.643999099731445,-6.248000144958496 C28.643999099731445,-6.248000144958496 63.2239990234375,-65.89299774169922 63.2239990234375,-65.89299774169922 C63.2239990234375,-65.89299774169922 63.2239990234375,-5.215000152587891 63.2239990234375,-5.215000152587891 C63.2239990234375,3.4110000133514404 70.2229995727539,10.40999984741211 78.8489990234375,10.40999984741211 C78.8489990234375,10.40999984741211 130.93299865722656,10.40999984741211 130.93299865722656,10.40999984741211 C139.5590057373047,10.40999984741211 146.55799865722656,3.4110000133514404 146.55799865722656,-5.215000152587891z"/></g></g><g class="primary design" transform="matrix(1,0,0,1,0,0)" opacity="1" style="display: none;"><g opacity="1" transform="matrix(1,0,0,1,291.66400146484375,250.0050048828125)"><path class="primary" fill="rgb(18,19,49)" fill-opacity="1" d=" M88.54199981689453,-208.33399963378906 C88.54199981689453,-208.33399963378906 -88.54199981689453,-208.33399963378906 -88.54199981689453,-208.33399963378906 C-108.64299774169922,-208.33399963378906 -125.0009994506836,-191.9770050048828 -125.0009994506836,-171.87600708007812 C-125.0009994506836,-171.87600708007812 -125.0009994506836,-119.79199981689453 -125.0009994506836,-119.79199981689453 C-125.0009994506836,-111.16600036621094 -118.00199890136719,-104.16699981689453 -109.3759994506836,-104.16699981689453 C-100.75,-104.16699981689453 -93.75,-111.16600036621094 -93.75,-119.79199981689453 C-93.75,-119.79199981689453 -93.75,-171.87600708007812 -93.75,-171.87600708007812 C-93.75,-174.7449951171875 -91.41100311279297,-177.08399963378906 -88.54199981689453,-177.08399963378906 C-88.54199981689453,-177.08399963378906 88.54199981689453,-177.08399963378906 88.54199981689453,-177.08399963378906 C91.41100311279297,-177.08399963378906 93.75,-174.7449951171875 93.75,-171.87600708007812 C93.75,-171.87600708007812 93.75,171.87600708007812 93.75,171.87600708007812 C93.75,174.7449951171875 91.41100311279297,177.08399963378906 88.54199981689453,177.08399963378906 C88.54199981689453,177.08399963378906 36.45899963378906,177.08399963378906 36.45899963378906,177.08399963378906 C27.83300018310547,177.08399963378906 20.83300018310547,184.08299255371094 20.83300018310547,192.70899963378906 C20.83300018310547,201.3350067138672 27.83300018310547,208.33399963378906 36.45899963378906,208.33399963378906 C36.45899963378906,208.33399963378906 88.54199981689453,208.33399963378906 88.54199981689453,208.33399963378906 C108.64299774169922,208.33399963378906 125.0009994506836,191.9770050048828 125.0009994506836,171.87600708007812 C125.0009994506836,171.87600708007812 125.0009994506836,-171.87600708007812 125.0009994506836,-171.87600708007812 C125.0009994506836,-191.9770050048828 108.64299774169922,-208.33399963378906 88.54199981689453,-208.33399963378906z"/></g><g opacity="1" transform="matrix(1,0,0,1,299.4830017089844,148.27499389648438)"><path class="primary" fill="rgb(18,19,49)" fill-opacity="1" d=" M-5.818999767303467,37.16299819946289 C-3.378999948501587,38.665000915527344 -0.7509999871253967,39.22700119018555 1.6890000104904175,39.22700119018555 C6.943999767303467,39.22700119018555 12.01200008392334,36.5989990234375 14.82800006866455,31.719999313354492 C14.82800006866455,31.719999313354492 29.843000411987305,5.818999767303467 29.843000411987305,5.818999767303467 C38.10100173950195,-8.633999824523926 33.22100067138672,-27.027000427246094 18.76799964904785,-35.28499984741211 C14.076000213623047,-38.10100173950195 8.821000099182129,-39.22700119018555 3.753000020980835,-39.22700119018555 C-6.570000171661377,-39.22700119018555 -16.70400047302246,-33.97100067138672 -22.336000442504883,-24.211999893188477 C-22.336000442504883,-24.211999893188477 -29.843000411987305,-11.26200008392334 -29.843000411987305,-11.26200008392334 C-38.10100173950195,3.003000020980835 -33.22100067138672,21.39699935913086 -18.770000457763672,29.655000686645508 C-18.770000457763672,29.655000686645508 -5.818999767303467,37.16299819946289 -5.818999767303467,37.16299819946289z"/></g><g opacity="1" transform="matrix(1,0,0,1,207.6060028076172,322.9179992675781)"><path class="primary" fill="rgb(18,19,49)" fill-opacity="1" d=" M146.55799865722656,-5.215000152587891 C146.55799865722656,-13.840999603271484 139.5590057373047,-20.84000015258789 130.93299865722656,-20.84000015258789 C130.93299865722656,-20.84000015258789 94.4749984741211,-20.84000015258789 94.4749984741211,-20.84000015258789 C94.4749984741211,-20.84000015258789 94.4749984741211,-78.12200164794922 94.4749984741211,-78.12200164794922 C94.4749984741211,-109.71800231933594 68.77899932861328,-135.41400146484375 37.18299865722656,-135.41400146484375 C37.18299865722656,-135.41400146484375 -40.94300079345703,-135.41400146484375 -40.94300079345703,-135.41400146484375 C-45.37799835205078,-135.41400146484375 -49.59000015258789,-133.53199768066406 -52.560001373291016,-130.24600219726562 C-52.560001373291016,-130.24600219726562 -99.43499755859375,-78.16200256347656 -99.43499755859375,-78.16200256347656 C-105.21299743652344,-71.74299621582031 -104.68399810791016,-61.86600112915039 -98.2750015258789,-56.0880012512207 C-91.82599639892578,-50.29999923706055 -81.95899963378906,-50.827999114990234 -76.20099639892578,-57.24700164794922 C-76.20099639892578,-57.24700164794922 -33.98500061035156,-104.16300201416016 -33.98500061035156,-104.16300201416016 C-33.98500061035156,-104.16300201416016 1.3049999475479126,-104.16300201416016 1.3049999475479126,-104.16300201416016 C1.3049999475479126,-104.16300201416016 -69.27300262451172,15.210000038146973 -69.27300262451172,15.210000038146973 C-69.27300262451172,15.210000038146973 -132.19000244140625,29.167999267578125 -132.19000244140625,29.167999267578125 C-142.19000244140625,31.25200080871582 -148.2310028076172,41.042999267578125 -146.1479949951172,50.834999084472656 C-144.27200317382812,59.375999450683594 -136.7729949951172,65.00199890136719 -128.44000244140625,65.00199890136719 C-126.98200225830078,65.00199890136719 -125.73200225830078,65.00199890136719 -124.48200225830078,64.58499908447266 C-124.48200225830078,64.58499908447266 -53.64799880981445,48.959999084472656 -53.64799880981445,48.959999084472656 C-48.64799880981445,47.91899871826172 -44.48099899291992,44.792999267578125 -41.98099899291992,40.62699890136719 C-41.98099899291992,40.62699890136719 -14.480999946594238,-6.040999889373779 -14.480999946594238,-6.040999889373779 C-14.480999946594238,-6.040999889373779 23.22800064086914,52.084999084472656 23.22800064086914,52.084999084472656 C23.22800064086914,52.084999084472656 23.226999282836914,117.28900146484375 23.226999282836914,117.28900146484375 C23.43400001525879,127.28900146484375 32.20399856567383,135.41400146484375 42.20500183105469,135.41400146484375 C42.20500183105469,135.41400146484375 42.20600128173828,135.41400146484375 42.41299819946289,135.41400146484375 C52.41400146484375,135.20599365234375 59.893001556396484,127.0790023803711 59.68600082397461,116.87100219726562 C59.68600082397461,116.87100219726562 59.68600082397461,46.667999267578125 59.68600082397461,46.667999267578125 C59.47700119018555,43.33399963378906 58.64500045776367,39.792999267578125 56.56100082397461,36.875999450683594 C56.56100082397461,36.875999450683594 28.643999099731445,-6.248000144958496 28.643999099731445,-6.248000144958496 C28.643999099731445,-6.248000144958496 63.2239990234375,-65.89299774169922 63.2239990234375,-65.89299774169922 C63.2239990234375,-65.89299774169922 63.2239990234375,-5.215000152587891 63.2239990234375,-5.215000152587891 C63.2239990234375,3.4110000133514404 70.2229995727539,10.40999984741211 78.8489990234375,10.40999984741211 C78.8489990234375,10.40999984741211 130.93299865722656,10.40999984741211 130.93299865722656,10.40999984741211 C139.5590057373047,10.40999984741211 146.55799865722656,3.4110000133514404 146.55799865722656,-5.215000152587891z"/></g></g><g clip-path="url(#__lottie_element_804)" transform="matrix(1,0,0,1,-0.01220703125,0)" opacity="1" style="display: none;"><g class="primary design" transform="matrix(0.9999979138374329,-0.0020152137149125338,0.0020152137149125338,0.9999979138374329,-0.44970703125,0.51953125)" opacity="1" style="display: block;"><g opacity="1" transform="matrix(1,0,0,1,299.4830017089844,148.27499389648438)"><g opacity="1" transform="matrix(1,0,0,1,0,0)"><path class="primary" fill="rgb(18,19,49)" fill-opacity="1" d=" M29.843000411987305,5.818999767303467 C29.843000411987305,5.818999767303467 14.82800006866455,31.719999313354492 14.82800006866455,31.719999313354492 C12.01200008392334,36.5989990234375 6.943999767303467,39.22700119018555 1.6890000104904175,39.22700119018555 C-0.7509999871253967,39.22700119018555 -3.378999948501587,38.665000915527344 -5.818999767303467,37.16299819946289 C-5.818999767303467,37.16299819946289 -18.770000457763672,29.655000686645508 -18.770000457763672,29.655000686645508 C-33.22100067138672,21.39699935913086 -38.10100173950195,3.003000020980835 -29.843000411987305,-11.26200008392334 C-29.843000411987305,-11.26200008392334 -22.336000442504883,-24.211999893188477 -22.336000442504883,-24.211999893188477 C-16.70400047302246,-33.97100067138672 -6.570000171661377,-39.22700119018555 3.753000020980835,-39.22700119018555 C8.821000099182129,-39.22700119018555 14.076000213623047,-38.10100173950195 18.76799964904785,-35.28499984741211 C33.220001220703125,-27.027000427246094 38.10100173950195,-8.633000373840332 29.843000411987305,5.818999767303467z"/></g></g></g><g class="primary design" transform="matrix(-0.10661251097917557,-0.9943006634712219,0.9943006634712219,-0.10661251097917557,342.77001953125,256.2403259277344)" opacity="1" style="display: block;"><g opacity="1" transform="matrix(1,0,0,1,0,0)"><path stroke-linecap="round" stroke-linejoin="round" fill-opacity="0" class="primary" stroke="rgb(18,19,49)" stroke-opacity="1" stroke-width="31.3" d=" M15.66100025177002,-55.22800064086914 C15.66100025177002,-55.22800064086914 -54.810001373291016,-61.65700149536133 -54.810001373291016,-61.65700149536133 C-54.810001373291016,-61.65700149536133 -60.22700119018555,-11.204999923706055 -60.22700119018555,-11.204999923706055"/></g></g><g class="primary design" transform="matrix(-0.01771192066371441,0.999843180179596,-0.999843180179596,-0.01771192066371441,224.5821990966797,146.07559204101562)" opacity="1" style="display: block;"><g opacity="1" transform="matrix(1,0,0,1,0,0)"><path stroke-linecap="round" stroke-linejoin="round" fill-opacity="0" class="primary" stroke="rgb(18,19,49)" stroke-opacity="1" stroke-width="31.3" d=" M111.51374053955078,102.7922592163086 C111.51374053955078,102.7922592163086 57.29499053955078,57.29607391357422 57.29499053955078,57.29607391357422 C57.29499053955078,57.29607391357422 56.79448699951172,-15.857110977172852 56.79448699951172,-15.857110977172852"/></g></g><g class="primary design" style="display: none;"><g><path class="primary"/></g></g><g class="primary design" transform="matrix(0.9999998807907104,-0.0004898641491308808,0.0004898641491308808,0.9999998807907104,174.0170440673828,327.732177734375)" opacity="1" style="display: block;"><g opacity="1" transform="matrix(1,0,0,1,0,0)"><path class="primary" fill="rgb(18,19,49)" fill-opacity="1" d=" M112.96700286865234,-98.552001953125 C112.96700286865234,-98.552001953125 67.66100311279297,-20.405000686645508 67.66100311279297,-20.405000686645508 C67.66100311279297,-20.405000686645508 62.23500061035156,-11.04699993133545 62.23500061035156,-11.04699993133545 C62.23500061035156,-11.04699993133545 45.98500061035156,2.0329999923706055 19.110000610351562,-10.84000015258789 C-6.455999851226807,-23.086000442504883 -4.73199987411499,-41.9370002746582 -4.73199987411499,-41.9370002746582 C-4.73199987411499,-41.9370002746582 0.3319999873638153,-50.500999450683594 0.3319999873638153,-50.500999450683594 C0.3319999873638153,-50.500999450683594 47.698001861572266,-130.61399841308594 47.698001861572266,-130.61399841308594"/></g></g><g class="primary design" transform="matrix(0.9999998807907104,-0.0004898641491308808,0.0004898641491308808,0.9999998807907104,229.13607788085938,260.4051818847656)" opacity="1" style="display: block;"><g opacity="1" transform="matrix(1,0,0,1,0,0)"><path stroke-linecap="round" stroke-linejoin="round" fill-opacity="0" class="primary" stroke="rgb(18,19,49)" stroke-opacity="1" stroke-width="31.3" d=" M41.58300018310547,-23.91699981689453 C41.58300018310547,-23.91699981689453 51.83300018310547,-19.417999267578125 57.29499816894531,-15.623000144958496 C57.29499816894531,-38.6349983215332 38.63999938964844,-57.290000915527344 15.628000259399414,-57.290000915527344 C15.628000259399414,-57.290000915527344 6.083000183105469,-54.66699981689453 6.083000183105469,-54.66699981689453"/></g></g><g class="primary design" transform="matrix(0.4045838415622711,-0.914500892162323,0.914500892162323,0.4045838415622711,194.39767456054688,230.89996337890625)" opacity="1" style="display: block;"><g opacity="1" transform="matrix(1,0,0,1,0,0)"><path stroke-linecap="round" stroke-linejoin="round" fill-opacity="0" class="primary" stroke="rgb(18,19,49)" stroke-opacity="1" stroke-width="36.13" d=" M-65.96098327636719,46.32655334472656 C-65.96098327636719,46.32655334472656 -102.97418975830078,104.96251678466797 -102.97418975830078,104.96251678466797 C-102.97418975830078,104.96251678466797 -168.66285705566406,134.9514923095703 -168.66285705566406,134.9514923095703"/></g></g><g class="primary design" transform="matrix(0.15643446147441864,0.9876883625984192,-0.9876883625984192,0.15643446147441864,246.175048828125,328.8869323730469)" opacity="1" style="display: block;"><g opacity="1" transform="matrix(1,0,0,1,0,0)"><path stroke-linecap="round" stroke-linejoin="round" fill-opacity="0" class="primary" stroke="rgb(18,19,49)" stroke-opacity="1" stroke-width="36.13" d=" M-44.41260528564453,54.70827865600586 C-44.41260528564453,54.70827865600586 8.617796897888184,98.55797576904297 8.617796897888184,98.55797576904297 C8.617796897888184,98.55797576904297 14.014997482299805,171.3596649169922 14.014997482299805,171.3596649169922"/></g></g></g><g mask="url(#__lottie_element_811_2)" style="display: none;"><g clip-path="url(#__lottie_element_808)" transform="matrix(1,0,0,1,366,0)" opacity="1"><g class="primary design" transform="matrix(0.9980374574661255,-0.06261943280696869,0.06261943280696869,0.9980374574661255,-11.980850219726562,17.279876708984375)" opacity="1" style="display: block;"><g opacity="1" transform="matrix(1,0,0,1,299.4830017089844,148.27499389648438)"><g opacity="1" transform="matrix(1,0,0,1,0,0)"><path class="primary" fill="rgb(18,19,49)" fill-opacity="1" d=" M29.843000411987305,5.818999767303467 C29.843000411987305,5.818999767303467 14.82800006866455,31.719999313354492 14.82800006866455,31.719999313354492 C12.01200008392334,36.5989990234375 6.943999767303467,39.22700119018555 1.6890000104904175,39.22700119018555 C-0.7509999871253967,39.22700119018555 -3.378999948501587,38.665000915527344 -5.818999767303467,37.16299819946289 C-5.818999767303467,37.16299819946289 -18.770000457763672,29.655000686645508 -18.770000457763672,29.655000686645508 C-33.22100067138672,21.39699935913086 -38.10100173950195,3.003000020980835 -29.843000411987305,-11.26200008392334 C-29.843000411987305,-11.26200008392334 -22.336000442504883,-24.211999893188477 -22.336000442504883,-24.211999893188477 C-16.70400047302246,-33.97100067138672 -6.570000171661377,-39.22700119018555 3.753000020980835,-39.22700119018555 C8.821000099182129,-39.22700119018555 14.076000213623047,-38.10100173950195 18.76799964904785,-35.28499984741211 C33.220001220703125,-27.027000427246094 38.10100173950195,-8.633000373840332 29.843000411987305,5.818999767303467z"/></g></g></g><g class="primary design" transform="matrix(-0.13152751326560974,-0.9913125038146973,0.9913125038146973,-0.13152751326560974,342.711181640625,254.48138427734375)" opacity="1" style="display: block;"><g opacity="1" transform="matrix(1,0,0,1,0,0)"><path stroke-linecap="round" stroke-linejoin="round" fill-opacity="0" class="primary" stroke="rgb(18,19,49)" stroke-opacity="1" stroke-width="31.3" d=" M15.66100025177002,-55.22800064086914 C15.66100025177002,-55.22800064086914 -54.810001373291016,-61.65700149536133 -54.810001373291016,-61.65700149536133 C-54.810001373291016,-61.65700149536133 -60.22700119018555,-11.204999923706055 -60.22700119018555,-11.204999923706055"/></g></g><g class="primary design" transform="matrix(-0.024136288091540337,0.9997086524963379,-0.9997086524963379,-0.024136288091540337,225.10679626464844,146.36724853515625)" opacity="1" style="display: block;"><g opacity="1" transform="matrix(1,0,0,1,0,0)"><path stroke-linecap="round" stroke-linejoin="round" fill-opacity="0" class="primary" stroke="rgb(18,19,49)" stroke-opacity="1" stroke-width="31.3" d=" M110.82415008544922,103.23128509521484 C110.82415008544922,103.23128509521484 57.29468536376953,57.51359939575195 57.29468536376953,57.51359939575195 C57.29468536376953,57.51359939575195 56.883514404296875,-17.29350471496582 56.883514404296875,-17.29350471496582"/></g></g><g class="primary design" style="display: none;"><g><path class="primary"/></g></g><g class="primary design" transform="matrix(0.9999915957450867,-0.00409315712749958,0.00409315712749958,0.9999915957450867,174.03231811523438,327.8435974121094)" opacity="1" style="display: block;"><g opacity="1" transform="matrix(1,0,0,1,0,0)"><path class="primary" fill="rgb(18,19,49)" fill-opacity="1" d=" M112.96700286865234,-98.552001953125 C112.96700286865234,-98.552001953125 67.66100311279297,-20.405000686645508 67.66100311279297,-20.405000686645508 C67.66100311279297,-20.405000686645508 62.23500061035156,-11.04699993133545 62.23500061035156,-11.04699993133545 C62.23500061035156,-11.04699993133545 45.98500061035156,2.0329999923706055 19.110000610351562,-10.84000015258789 C-6.455999851226807,-23.086000442504883 -4.73199987411499,-41.9370002746582 -4.73199987411499,-41.9370002746582 C-4.73199987411499,-41.9370002746582 0.3319999873638153,-50.500999450683594 0.3319999873638153,-50.500999450683594 C0.3319999873638153,-50.500999450683594 47.698001861572266,-130.61399841308594 47.698001861572266,-130.61399841308594"/></g></g><g class="primary design" transform="matrix(0.9999915957450867,-0.00409315712749958,0.00409315712749958,0.9999915957450867,228.90838623046875,260.31842041015625)" opacity="1" style="display: block;"><g opacity="1" transform="matrix(1,0,0,1,0,0)"><path stroke-linecap="round" stroke-linejoin="round" fill-opacity="0" class="primary" stroke="rgb(18,19,49)" stroke-opacity="1" stroke-width="31.3" d=" M41.58300018310547,-23.91699981689453 C41.58300018310547,-23.91699981689453 51.83300018310547,-19.417999267578125 57.29499816894531,-15.623000144958496 C57.29499816894531,-38.6349983215332 38.63999938964844,-57.290000915527344 15.628000259399414,-57.290000915527344 C15.628000259399414,-57.290000915527344 6.083000183105469,-54.66699981689453 6.083000183105469,-54.66699981689453"/></g></g><g class="primary design" transform="matrix(0.32428839802742004,-0.9459582567214966,0.9459582567214966,0.32428839802742004,190.8831787109375,231.80215454101562)" opacity="1" style="display: block;"><g opacity="1" transform="matrix(1,0,0,1,0,0)"><path stroke-linecap="round" stroke-linejoin="round" fill-opacity="0" class="primary" stroke="rgb(18,19,49)" stroke-opacity="1" stroke-width="36.13" d=" M-65.63072967529297,45.68761444091797 C-65.63072967529297,45.68761444091797 -102.35838317871094,104.68843078613281 -102.35838317871094,104.68843078613281 C-102.35838317871094,104.68843078613281 -166.4234161376953,141.0861358642578 -166.4234161376953,141.0861358642578"/></g></g><g class="primary design" transform="matrix(0.15643446147441864,0.9876883625984192,-0.9876883625984192,0.15643446147441864,246.175048828125,328.8869323730469)" opacity="1" style="display: block;"><g opacity="1" transform="matrix(1,0,0,1,0,0)"><path stroke-linecap="round" stroke-linejoin="round" fill-opacity="0" class="primary" stroke="rgb(18,19,49)" stroke-opacity="1" stroke-width="36.13" d=" M-43.59236145019531,55.63411331176758 C-43.59236145019531,55.63411331176758 7.145357608795166,100.3150634765625 7.145357608795166,100.3150634765625 C7.145357608795166,100.3150634765625 5.298081874847412,173.61843872070312 5.298081874847412,173.61843872070312"/></g></g></g></g><g clip-path="url(#__lottie_element_735)" transform="matrix(1,0,0,1,-11.2877197265625,0)" opacity="1" style="display: none;"><g class="primary design" transform="matrix(0.9995884299278259,-0.028689714148640633,0.028689714148640633,0.9995884299278259,-5.5134124755859375,7.880767822265625)" opacity="1" style="display: block;"><g opacity="1" transform="matrix(1,0,0,1,299.4830017089844,148.27499389648438)"><g opacity="1" transform="matrix(1,0,0,1,0,0)"><path class="primary" fill="rgb(18,19,49)" fill-opacity="1" d=" M29.843000411987305,5.818999767303467 C29.843000411987305,5.818999767303467 14.82800006866455,31.719999313354492 14.82800006866455,31.719999313354492 C12.01200008392334,36.5989990234375 6.943999767303467,39.22700119018555 1.6890000104904175,39.22700119018555 C-0.7509999871253967,39.22700119018555 -3.378999948501587,38.665000915527344 -5.818999767303467,37.16299819946289 C-5.818999767303467,37.16299819946289 -18.770000457763672,29.655000686645508 -18.770000457763672,29.655000686645508 C-33.22100067138672,21.39699935913086 -38.10100173950195,3.003000020980835 -29.843000411987305,-11.26200008392334 C-29.843000411987305,-11.26200008392334 -22.336000442504883,-24.211999893188477 -22.336000442504883,-24.211999893188477 C-16.70400047302246,-33.97100067138672 -6.570000171661377,-39.22700119018555 3.753000020980835,-39.22700119018555 C8.821000099182129,-39.22700119018555 14.076000213623047,-38.10100173950195 18.76799964904785,-35.28499984741211 C33.220001220703125,-27.027000427246094 38.10100173950195,-8.633000373840332 29.843000411987305,5.818999767303467z"/></g></g></g><g class="primary design" transform="matrix(-0.11165736615657806,-0.9937467575073242,0.9937467575073242,-0.11165736615657806,342.77423095703125,255.89842224121094)" opacity="1" style="display: block;"><g opacity="1" transform="matrix(1,0,0,1,0,0)"><path stroke-linecap="round" stroke-linejoin="round" fill-opacity="0" class="primary" stroke="rgb(18,19,49)" stroke-opacity="1" stroke-width="31.3" d=" M15.66100025177002,-55.22800064086914 C15.66100025177002,-55.22800064086914 -54.810001373291016,-61.65700149536133 -54.810001373291016,-61.65700149536133 C-54.810001373291016,-61.65700149536133 -60.22700119018555,-11.204999923706055 -60.22700119018555,-11.204999923706055"/></g></g><g class="primary design" transform="matrix(-0.01926012709736824,0.999814510345459,-0.999814510345459,-0.01926012709736824,224.72727966308594,146.14083862304688)" opacity="1" style="display: block;"><g opacity="1" transform="matrix(1,0,0,1,0,0)"><path stroke-linecap="round" stroke-linejoin="round" fill-opacity="0" class="primary" stroke="rgb(18,19,49)" stroke-opacity="1" stroke-width="31.3" d=" M111.31534576416016,102.91857147216797 C111.31534576416016,102.91857147216797 57.29490280151367,57.35865783691406 57.29490280151367,57.35865783691406 C57.29490280151367,57.35865783691406 56.820098876953125,-16.270362854003906 56.820098876953125,-16.270362854003906"/></g></g><g class="primary design" style="display: none;"><g><path class="primary"/></g></g><g class="primary design" transform="matrix(0.999999463558197,-0.00104891590308398,0.00104891590308398,0.999999463558197,174.01939392089844,327.74951171875)" opacity="1" style="display: block;"><g opacity="1" transform="matrix(1,0,0,1,0,0)"><path class="primary" fill="rgb(18,19,49)" fill-opacity="1" d=" M112.96700286865234,-98.552001953125 C112.96700286865234,-98.552001953125 67.66100311279297,-20.405000686645508 67.66100311279297,-20.405000686645508 C67.66100311279297,-20.405000686645508 62.23500061035156,-11.04699993133545 62.23500061035156,-11.04699993133545 C62.23500061035156,-11.04699993133545 45.98500061035156,2.0329999923706055 19.110000610351562,-10.84000015258789 C-6.455999851226807,-23.086000442504883 -4.73199987411499,-41.9370002746582 -4.73199987411499,-41.9370002746582 C-4.73199987411499,-41.9370002746582 0.3319999873638153,-50.500999450683594 0.3319999873638153,-50.500999450683594 C0.3319999873638153,-50.500999450683594 47.698001861572266,-130.61399841308594 47.698001861572266,-130.61399841308594"/></g></g><g class="primary design" transform="matrix(0.999999463558197,-0.00104891590308398,0.00104891590308398,0.999999463558197,229.10076904296875,260.3916931152344)" opacity="1" style="display: block;"><g opacity="1" transform="matrix(1,0,0,1,0,0)"><path stroke-linecap="round" stroke-linejoin="round" fill-opacity="0" class="primary" stroke="rgb(18,19,49)" stroke-opacity="1" stroke-width="31.3" d=" M41.58300018310547,-23.91699981689453 C41.58300018310547,-23.91699981689453 51.83300018310547,-19.417999267578125 57.29499816894531,-15.623000144958496 C57.29499816894531,-38.6349983215332 38.63999938964844,-57.290000915527344 15.628000259399414,-57.290000915527344 C15.628000259399414,-57.290000915527344 6.083000183105469,-54.66699981689453 6.083000183105469,-54.66699981689453"/></g></g><g class="primary design" transform="matrix(0.3682776093482971,-0.9297158718109131,0.9297158718109131,0.3682776093482971,192.7781982421875,231.24160766601562)" opacity="1" style="display: block;"><g opacity="1" transform="matrix(1,0,0,1,0,0)"><path stroke-linecap="round" stroke-linejoin="round" fill-opacity="0" class="primary" stroke="rgb(18,19,49)" stroke-opacity="1" stroke-width="36.13" d=" M-65.81026458740234,46.03496551513672 C-65.81026458740234,46.03496551513672 -102.69315338134766,104.83743286132812 -102.69315338134766,104.83743286132812 C-102.69315338134766,104.83743286132812 -167.64085388183594,137.75112915039062 -167.64085388183594,137.75112915039062"/></g></g><g class="primary design" transform="matrix(0.15643446147441864,0.9876883625984192,-0.9876883625984192,0.15643446147441864,246.175048828125,328.8869323730469)" opacity="1" style="display: block;"><g opacity="1" transform="matrix(1,0,0,1,0,0)"><path stroke-linecap="round" stroke-linejoin="round" fill-opacity="0" class="primary" stroke="rgb(18,19,49)" stroke-opacity="1" stroke-width="36.13" d=" M-44.038272857666016,55.13079833984375 C-44.038272857666016,55.13079833984375 7.945827960968018,99.35984802246094 7.945827960968018,99.35984802246094 C7.945827960968018,99.35984802246094 10.036906242370605,172.39048767089844 10.036906242370605,172.39048767089844"/></g></g></g><g mask="url(#__lottie_element_742_2)" style="display: none;"><g clip-path="url(#__lottie_element_739)" transform="matrix(1,0,0,1,354.71490478515625,0)" opacity="1"><g class="primary design" transform="matrix(1,0,0,1,0,0.000030517578125)" opacity="1" style="display: block;"><g opacity="1" transform="matrix(1,0,0,1,299.4830017089844,148.27499389648438)"><g opacity="1" transform="matrix(1,0,0,1,0,0)"><path class="primary" fill="rgb(18,19,49)" fill-opacity="1" d=" M29.843000411987305,5.818999767303467 C29.843000411987305,5.818999767303467 14.82800006866455,31.719999313354492 14.82800006866455,31.719999313354492 C12.01200008392334,36.5989990234375 6.943999767303467,39.22700119018555 1.6890000104904175,39.22700119018555 C-0.7509999871253967,39.22700119018555 -3.378999948501587,38.665000915527344 -5.818999767303467,37.16299819946289 C-5.818999767303467,37.16299819946289 -18.770000457763672,29.655000686645508 -18.770000457763672,29.655000686645508 C-33.22100067138672,21.39699935913086 -38.10100173950195,3.003000020980835 -29.843000411987305,-11.26200008392334 C-29.843000411987305,-11.26200008392334 -22.336000442504883,-24.211999893188477 -22.336000442504883,-24.211999893188477 C-16.70400047302246,-33.97100067138672 -6.570000171661377,-39.22700119018555 3.753000020980835,-39.22700119018555 C8.821000099182129,-39.22700119018555 14.076000213623047,-38.10100173950195 18.76799964904785,-35.28499984741211 C33.220001220703125,-27.027000427246094 38.10100173950195,-8.633000373840332 29.843000411987305,5.818999767303467z"/></g></g></g><g class="primary design" transform="matrix(-0.10452846437692642,-0.9945219159126282,0.9945219159126282,-0.10452846437692642,342.7877197265625,256.4019775390625)" opacity="1" style="display: block;"><g opacity="1" transform="matrix(1,0,0,1,0,0)"><path stroke-linecap="round" stroke-linejoin="round" fill-opacity="0" class="primary" stroke="rgb(18,19,49)" stroke-opacity="1" stroke-width="31.3" d=" M15.66100025177002,-55.22800064086914 C15.66100025177002,-55.22800064086914 -54.810001373291016,-61.65700149536133 -54.810001373291016,-61.65700149536133 C-54.810001373291016,-61.65700149536133 -60.22700119018555,-11.204999923706055 -60.22700119018555,-11.204999923706055"/></g></g><g class="primary design" transform="matrix(-0.017452405765652657,0.9998477101325989,-0.9998477101325989,-0.017452405765652657,224.5823211669922,146.05807495117188)" opacity="1" style="display: block;"><g opacity="1" transform="matrix(1,0,0,1,0,0)"><path stroke-linecap="round" stroke-linejoin="round" fill-opacity="0" class="primary" stroke="rgb(18,19,49)" stroke-opacity="1" stroke-width="31.3" d=" M111.53299713134766,102.77999877929688 C111.53299713134766,102.77999877929688 57.29499816894531,57.290000915527344 57.29499816894531,57.290000915527344 C57.29499816894531,57.290000915527344 56.79199981689453,-15.817000389099121 56.79199981689453,-15.817000389099121"/></g></g><g class="primary design" style="display: none;"><g><path class="primary"/></g></g><g class="primary design" transform="matrix(1,0,0,1,174.01499938964844,327.7170104980469)" opacity="1" style="display: block;"><g opacity="1" transform="matrix(1,0,0,1,0,0)"><path class="primary" fill="rgb(18,19,49)" fill-opacity="1" d=" M112.96700286865234,-98.552001953125 C112.96700286865234,-98.552001953125 67.66100311279297,-20.405000686645508 67.66100311279297,-20.405000686645508 C67.66100311279297,-20.405000686645508 62.23500061035156,-11.04699993133545 62.23500061035156,-11.04699993133545 C62.23500061035156,-11.04699993133545 45.98500061035156,2.0329999923706055 19.110000610351562,-10.84000015258789 C-6.455999851226807,-23.086000442504883 -4.73199987411499,-41.9370002746582 -4.73199987411499,-41.9370002746582 C-4.73199987411499,-41.9370002746582 0.3319999873638153,-50.500999450683594 0.3319999873638153,-50.500999450683594 C0.3319999873638153,-50.500999450683594 47.698001861572266,-130.61399841308594 47.698001861572266,-130.61399841308594"/></g></g><g class="primary design" transform="matrix(1,0,0,1,229.1669921875,260.4169921875)" opacity="1" style="display: block;"><g opacity="1" transform="matrix(1,0,0,1,0,0)"><path stroke-linecap="round" stroke-linejoin="round" fill-opacity="0" class="primary" stroke="rgb(18,19,49)" stroke-opacity="1" stroke-width="31.3" d=" M41.58300018310547,-23.91699981689453 C41.58300018310547,-23.91699981689453 51.83300018310547,-19.417999267578125 57.29499816894531,-15.623000144958496 C57.29499816894531,-38.6349983215332 38.63999938964844,-57.290000915527344 15.628000259399414,-57.290000915527344 C15.628000259399414,-57.290000915527344 6.083000183105469,-54.66699981689453 6.083000183105469,-54.66699981689453"/></g></g><g class="primary design" transform="matrix(0.4067366421222687,-0.9135454297065735,0.9135454297065735,0.4067366421222687,194.4952850341797,230.88328552246094)" opacity="1" style="display: block;"><g opacity="1" transform="matrix(1,0,0,1,0,0)"><path stroke-linecap="round" stroke-linejoin="round" fill-opacity="0" class="primary" stroke="rgb(18,19,49)" stroke-opacity="1" stroke-width="36.13" d=" M-65.97000122070312,46.34400177001953 C-65.97000122070312,46.34400177001953 -102.99099731445312,104.97000122070312 -102.99099731445312,104.97000122070312 C-102.99099731445312,104.97000122070312 -168.7239990234375,134.78399658203125 -168.7239990234375,134.78399658203125"/></g></g><g class="primary design" transform="matrix(0.15643446147441864,0.9876883625984192,-0.9876883625984192,0.15643446147441864,246.175048828125,328.8869323730469)" opacity="1" style="display: block;"><g opacity="1" transform="matrix(1,0,0,1,0,0)"><path stroke-linecap="round" stroke-linejoin="round" fill-opacity="0" class="primary" stroke="rgb(18,19,49)" stroke-opacity="1" stroke-width="36.13" d=" M-44.435001373291016,54.68299865722656 C-44.435001373291016,54.68299865722656 8.657999992370605,98.51000213623047 8.657999992370605,98.51000213623047 C8.657999992370605,98.51000213623047 14.253000259399414,171.29800415039062 14.253000259399414,171.29800415039062"/></g></g></g></g></g></g></svg>